<mxfile host="app.diagrams.net" agent="Mozilla/5.0 (Windows NT 10.0; Win64; x64) AppleWebKit/537.36 (KHTML, like Gecko) Chrome/134.0.0.0 Safari/537.36" version="26.0.14">
  <diagram name="第 1 页" id="y0qpBiWhtZ0S1YNHtcJV">
    <mxGraphModel dx="1728" dy="915" grid="1" gridSize="10" guides="1" tooltips="1" connect="1" arrows="1" fold="1" page="1" pageScale="1" pageWidth="827" pageHeight="1169" math="0" shadow="0">
      <root>
        <mxCell id="0" />
        <mxCell id="1" parent="0" />
        <mxCell id="qKER_6j-yiqgJ_hzkYCS-11" style="edgeStyle=orthogonalEdgeStyle;rounded=0;orthogonalLoop=1;jettySize=auto;html=1;entryX=0.5;entryY=0;entryDx=0;entryDy=0;exitX=0.5;exitY=1;exitDx=0;exitDy=0;" edge="1" parent="1" source="qKER_6j-yiqgJ_hzkYCS-1" target="qKER_6j-yiqgJ_hzkYCS-9">
          <mxGeometry relative="1" as="geometry" />
        </mxCell>
        <mxCell id="qKER_6j-yiqgJ_hzkYCS-1" value="Deep Learning Methods for B-rep Models" style="rounded=1;whiteSpace=wrap;html=1;" vertex="1" parent="1">
          <mxGeometry x="320" y="280" width="160" height="70" as="geometry" />
        </mxCell>
        <mxCell id="qKER_6j-yiqgJ_hzkYCS-13" style="edgeStyle=orthogonalEdgeStyle;rounded=0;orthogonalLoop=1;jettySize=auto;html=1;exitX=0.5;exitY=1;exitDx=0;exitDy=0;entryX=0.5;entryY=0;entryDx=0;entryDy=0;" edge="1" parent="1" source="qKER_6j-yiqgJ_hzkYCS-3" target="qKER_6j-yiqgJ_hzkYCS-6">
          <mxGeometry relative="1" as="geometry" />
        </mxCell>
        <mxCell id="qKER_6j-yiqgJ_hzkYCS-3" value="B-rep Understanding" style="rounded=1;whiteSpace=wrap;html=1;" vertex="1" parent="1">
          <mxGeometry x="120" y="400" width="160" height="70" as="geometry" />
        </mxCell>
        <mxCell id="qKER_6j-yiqgJ_hzkYCS-20" style="edgeStyle=orthogonalEdgeStyle;rounded=0;orthogonalLoop=1;jettySize=auto;html=1;exitX=0.5;exitY=1;exitDx=0;exitDy=0;" edge="1" parent="1" source="qKER_6j-yiqgJ_hzkYCS-6">
          <mxGeometry relative="1" as="geometry">
            <mxPoint x="75.33333333333348" y="600" as="targetPoint" />
          </mxGeometry>
        </mxCell>
        <mxCell id="qKER_6j-yiqgJ_hzkYCS-6" value="Classification" style="rounded=1;whiteSpace=wrap;html=1;" vertex="1" parent="1">
          <mxGeometry x="30" y="520" width="90" height="50" as="geometry" />
        </mxCell>
        <mxCell id="qKER_6j-yiqgJ_hzkYCS-9" value="B-rep Generation" style="rounded=1;whiteSpace=wrap;html=1;" vertex="1" parent="1">
          <mxGeometry x="560" y="400" width="160" height="70" as="geometry" />
        </mxCell>
        <mxCell id="qKER_6j-yiqgJ_hzkYCS-10" style="edgeStyle=orthogonalEdgeStyle;rounded=0;orthogonalLoop=1;jettySize=auto;html=1;entryX=0.5;entryY=0;entryDx=0;entryDy=0;exitX=0.5;exitY=1;exitDx=0;exitDy=0;" edge="1" parent="1" source="qKER_6j-yiqgJ_hzkYCS-1" target="qKER_6j-yiqgJ_hzkYCS-3">
          <mxGeometry relative="1" as="geometry" />
        </mxCell>
        <mxCell id="qKER_6j-yiqgJ_hzkYCS-15" value="Segmentation" style="rounded=1;whiteSpace=wrap;html=1;" vertex="1" parent="1">
          <mxGeometry x="155" y="520" width="90" height="50" as="geometry" />
        </mxCell>
        <mxCell id="qKER_6j-yiqgJ_hzkYCS-17" style="edgeStyle=orthogonalEdgeStyle;rounded=0;orthogonalLoop=1;jettySize=auto;html=1;entryX=0.501;entryY=0.058;entryDx=0;entryDy=0;entryPerimeter=0;" edge="1" parent="1" source="qKER_6j-yiqgJ_hzkYCS-3" target="qKER_6j-yiqgJ_hzkYCS-15">
          <mxGeometry relative="1" as="geometry" />
        </mxCell>
        <mxCell id="qKER_6j-yiqgJ_hzkYCS-18" value="Representation Learning" style="rounded=1;whiteSpace=wrap;html=1;" vertex="1" parent="1">
          <mxGeometry x="280" y="520" width="90" height="50" as="geometry" />
        </mxCell>
        <mxCell id="qKER_6j-yiqgJ_hzkYCS-19" style="edgeStyle=orthogonalEdgeStyle;rounded=0;orthogonalLoop=1;jettySize=auto;html=1;exitX=0.5;exitY=1;exitDx=0;exitDy=0;" edge="1" parent="1" source="qKER_6j-yiqgJ_hzkYCS-3">
          <mxGeometry relative="1" as="geometry">
            <mxPoint x="327" y="520" as="targetPoint" />
          </mxGeometry>
        </mxCell>
      </root>
    </mxGraphModel>
  </diagram>
</mxfile>
